<?xml version="1.0" encoding="utf-8"?>
<svg version="1.1" xmlns="http://www.w3.org/2000/svg" xmlns:xlink="http://www.w3.org/1999/xlink" height="450" width="450">
  <defs>
    <path transform="translate(-189.831297054319)" id="path-1" opacity="1" fill-rule="evenodd" d="M234.831297054319,0 L594.8312970543191,0 C619.667473156549,0 639.8312970543191,20.16382389777 639.8312970543191,45 L639.8312970543191,405 C639.8312970543191,429.83617610223 619.667473156549,450 594.8312970543191,450 L234.831297054319,450 C209.99512095208902,450 189.831297054319,429.83617610223 189.831297054319,405 L189.831297054319,45 C189.831297054319,20.163823897770005 209.995120952089,7.105427357601002e-15 234.831297054319,0Z"/>
    <rect transform="translate(-189.831297054319)" id="rect-2" opacity="1" x="289.831297054319" y="68" width="250" height="250"/>
    <path transform="translate(-189.831297054319)" id="path-3" opacity="1" fill-rule="evenodd" d="M335.6645184898659,209.66603088378906 L318.99773992541276,209.66603088378906 C302.89732183459245,209.6488800048828 289.8501721763893,196.59991455078125 289.831297054319,180.4993896484375 L289.831297054319,97.16664123535156 C289.8501721763893,81.06611633300781 302.89732183459245,68.01716613769531 318.99773992541276,68 L452.33025945666276,68 C468.432371273069,68.01716613769531 481.47955144885026,81.06611633300781 481.4984113121315,97.16664123535156 L481.4984113121315,159.6670684814453 L473.1641827965065,159.6670684814453 L473.1641827965065,97.16664123535156 C473.15044988635026,85.66577911376953 463.831052913694,76.34632110595703 452.33196844103776,76.33258819580078 L318.99773992541276,76.33258819580078 C307.49867071154557,76.34632110595703 298.1792737388893,85.66577911376953 298.16554082873307,97.16664123535156 L298.16554082873307,180.4993896484375 C298.1792737388893,192.00025939941406 307.4969464683815,201.31971740722656 318.99773992541276,201.3334503173828 L339.8316327476784,201.3334503173828 C342.13316167834245,201.3334503173828 343.9970380211159,203.1990509033203 343.9970380211159,205.50059509277344 L343.9970380211159,228.77520751953125 L370.2183514976784,202.55372619628906 C370.999265804319,201.77281188964844 372.0599042320534,201.3334503173828 373.16518987658463,201.3334503173828 L381.49773992541276,201.3334503173828 L381.49773992541276,209.66603088378906 L374.8900586509987,209.66603088378906 L342.77676214220963,241.779541015625 C341.99586309435807,242.56045532226562 340.93691839220963,242.99981689453125 339.8316327476784,242.99981689453125 C337.5301038170143,242.99981689453125 335.6645184898659,241.13421630859375 335.6645184898659,238.83441162109375 L335.6645184898659,209.66603088378906Z"/>
    <path transform="translate(-189.831297054319)" id="path-4" opacity="1" fill-rule="evenodd" d="M510.66485418322526,167.99966430664062 L418.9984113121315,167.99966430664062 C402.8962842369362,168.01853942871094 389.84913457873307,181.06578063964844 389.83025945666276,197.1663055419922 L389.83025945666276,255.49957275390625 C389.84913457873307,271.601806640625 402.8962842369362,284.6490478515625 418.9984113121315,284.6679382324219 L463.1067792320534,284.6679382324219 L495.21832098010026,316.77972412109375 C496.84710515978776,318.4067687988281 499.48501409533463,318.4067687988281 501.1120282554909,316.77972412109375 C501.8929425621315,315.9988098144531 502.33059515002213,314.9381408691406 502.33059515002213,313.8345642089844 L502.33059515002213,284.6679382324219 L510.66485418322526,284.6679382324219 C526.7652570152566,284.6490478515625 539.8124066734597,271.601806640625 539.8312970543191,255.49957275390625 L539.8312970543191,197.1663055419922 C539.8124066734597,181.06578063964844 526.7652570152566,168.01853942871094 510.66485418322526,167.99966430664062 L531.4987470054909,255.49957275390625 C531.4850140953347,267.00042724609375 522.1656171226784,276.31988525390625 510.66485418322526,276.3336181640625 L498.16518987658463,276.3336181640625 C495.8636456871315,276.3336181640625 493.998045101194,278.19921875 493.998045101194,280.50079345703125 L493.998045101194,303.775390625 L467.77676214220963,277.55389404296875 C466.995847835569,276.77301025390625 465.93691839220963,276.3336181640625 464.8316327476784,276.3336181640625 L418.9984113121315,276.3336181640625 C407.49761785510026,276.31988525390625 398.17823614123307,267.00042724609375 398.1645032310768,255.49957275390625 L398.1645032310768,197.1663055419922 C398.17823614123307,185.6671600341797 407.49761785510026,176.3477020263672 418.9984113121315,176.33396911621094 L510.66485418322526,176.33396911621094 C522.1656171226784,176.34597778320312 531.4833051109597,185.6671600341797 531.4970075035378,197.1663055419922 L531.4987470054909,255.49957275390625 L510.66485418322526,167.99966430664062Z"/>
    <path transform="translate(-189.831297054319)" id="path-5" opacity="1" fill-rule="evenodd" d="M323.16485418322526,101.33378601074219 L406.4987470054909,101.33378601074219 L406.4987470054909,109.6663818359375 L323.16485418322526,109.6663818359375 L323.16485418322526,101.33378601074219Z"/>
    <path transform="translate(-189.831297054319)" id="path-6" opacity="1" fill-rule="evenodd" d="M423.163816585569,101.33378601074219 L448.16485418322526,101.33378601074219 L448.16485418322526,109.6663818359375 L423.163816585569,109.6663818359375 L423.163816585569,101.33378601074219Z"/>
    <path transform="translate(-189.831297054319)" id="path-7" opacity="1" fill-rule="evenodd" d="M323.16485418322526,126.33328247070312 L448.16485418322526,126.33328247070312 L448.16485418322526,134.66587829589844 L323.16485418322526,134.66587829589844 L323.16485418322526,126.33328247070312Z"/>
    <path transform="translate(-189.831297054319)" id="path-8" opacity="1" fill-rule="evenodd" d="M381.4977246666237,151.332763671875 L448.16485418322526,151.332763671875 L448.16485418322526,159.6670684814453 L381.4977246666237,159.6670684814453 L381.4977246666237,151.332763671875Z"/>
    <path transform="translate(-189.831297054319)" id="path-9" opacity="1" fill-rule="evenodd" d="M323.16485418322526,151.332763671875 L364.83094610217057,151.332763671875 L364.83094610217057,159.6670684814453 L323.16485418322526,159.6670684814453 L323.16485418322526,151.332763671875Z"/>
    <path transform="translate(-189.831297054319)" id="path-10" opacity="1" fill-rule="evenodd" d="M323.16485418322526,176.33396911621094 L381.4977246666237,176.33396911621094 L381.4977246666237,184.66656494140625 L323.16485418322526,184.66656494140625 L323.16485418322526,176.33396911621094Z"/>
    <path transform="translate(-189.831297054319)" id="path-11" opacity="1" fill-rule="evenodd" d="M414.831297054319,197.16629028320312 L473.1641827965065,197.16629028320312 L473.1641827965065,205.50059509277344 L414.831297054319,205.50059509277344 L414.831297054319,197.16629028320312Z"/>
    <path transform="translate(-189.831297054319)" id="path-12" opacity="1" fill-rule="evenodd" d="M489.8309308433815,197.16629028320312 L514.8319684410378,197.16629028320312 L514.8319684410378,205.50059509277344 L489.8309308433815,205.50059509277344 L489.8309308433815,197.16629028320312Z"/>
    <path transform="translate(-189.831297054319)" id="path-13" opacity="1" fill-rule="evenodd" d="M414.831297054319,222.16749572753906 L514.8302594566628,222.16749572753906 L514.8302594566628,230.50009155273438 L414.831297054319,230.50009155273438 L414.831297054319,222.16749572753906Z"/>
    <path transform="translate(-189.831297054319)" id="path-14" opacity="1" fill-rule="evenodd" d="M414.831297054319,247.1669921875 L514.8302594566628,247.1669921875 L514.8302594566628,255.49957275390625 L414.831297054319,255.49957275390625 L414.831297054319,247.1669921875Z"/>
  </defs>
  <g opacity="1">
    <g opacity="1">
      <use xlink:href="#path-1" fill="rgb(193,101,221)" fill-opacity="1"/>
    </g>
    <g opacity="1">
      <g opacity="0.9">
        <g opacity="1">
          <use xlink:href="#path-3" fill="rgb(255,255,255)" fill-opacity="1"/>
        </g>
        <g opacity="1">
          <use xlink:href="#path-4" fill="rgb(255,255,255)" fill-opacity="1"/>
        </g>
        <g opacity="1">
          <use xlink:href="#path-5" fill="rgb(255,255,255)" fill-opacity="1"/>
        </g>
        <g opacity="1">
          <use xlink:href="#path-6" fill="rgb(255,255,255)" fill-opacity="1"/>
        </g>
        <g opacity="1">
          <use xlink:href="#path-7" fill="rgb(255,255,255)" fill-opacity="1"/>
        </g>
        <g opacity="1">
          <use xlink:href="#path-8" fill="rgb(255,255,255)" fill-opacity="1"/>
        </g>
        <g opacity="1">
          <use xlink:href="#path-9" fill="rgb(255,255,255)" fill-opacity="1"/>
        </g>
        <g opacity="1">
          <use xlink:href="#path-10" fill="rgb(255,255,255)" fill-opacity="1"/>
        </g>
        <g opacity="1">
          <use xlink:href="#path-11" fill="rgb(255,255,255)" fill-opacity="1"/>
        </g>
        <g opacity="1">
          <use xlink:href="#path-12" fill="rgb(255,255,255)" fill-opacity="1"/>
        </g>
        <g opacity="1">
          <use xlink:href="#path-13" fill="rgb(255,255,255)" fill-opacity="1"/>
        </g>
        <g opacity="1">
          <use xlink:href="#path-14" fill="rgb(255,255,255)" fill-opacity="1"/>
        </g>
      </g>
    </g>
  </g>
</svg>